<svg xmlns="http://www.w3.org/2000/svg" xmlns:xlink="http://www.w3.org/1999/xlink" xml:space="preserve" width="500" height="381.03503" viewBox="0 0 500 381.03504"><defs><path id="reuse-0" d="M3411.21 964.199 2523.4 1476.93c-39.61 22.87-34.64 62.82 11.09 89.23l1723.25 994.64c45.74 26.41 114.93 29.28 154.55 6.41l887.81-512.72c39.61-22.87 34.64-62.82-11.1-89.23L3565.76 970.609c-45.74-26.41-114.93-29.277-154.55-6.41"/></defs><defs><clipPath id="a" clipPathUnits="userSpaceOnUse"><path d="M3478.76 821.32c-26 0-50.82 5.25-69.36 15.961l-851.2 491.439-3.96 2.29-65.47 37.79c-18.66 10.77-27.64 25.22-27.53 40.33l-.1-.01.01 82.02c.05-1.48.19-2.96.41-4.42-2.32-16.86 6.54-33.29 27.21-45.23l920.63-531.521c18.54-10.707 43.37-15.957 69.37-15.957 31.38 0 64.49 7.648 90.34 22.578l1755.81 1013.72c28.2 16.28 41.28 37.52 38.65 57.05.23 1.49.38 2.98.43 4.47h.03v-82.89l-.14-.02c-.41-17.87-13.52-36.61-38.97-51.3l-53.99-31.17-3.97-2.29-1697.85-980.262c-25.86-14.929-58.96-22.578-90.35-22.578m0 83.45c-26 0-50.82 5.242-69.36 15.949l-920.63 531.521c-.07.04-.14.08-.2.12.07-.04.13-.08.2-.12l920.63-531.521c18.54-10.707 43.36-15.949 69.36-15.949 31.38 0 64.5 7.652 90.35 22.57l1755.81 1013.72c.74.43 1.47.85 2.19 1.29-.72-.44-1.45-.86-2.19-1.29L3569.11 927.34c-25.85-14.918-58.97-22.57-90.35-22.57m-990.32 547.67c-.02.01-.05.02-.07.04.02-.02.05-.03.07-.04m-.23.13c-.01.01-.01.01-.02.01.01 0 .01 0 .02-.01m2838.93 489.8c.07.04.15.09.23.13-.08-.04-.16-.09-.23-.13m.31.18c.05.04.11.08.17.11-.06-.04-.11-.07-.17-.11m.3.19c.05.03.09.05.13.08-.04-.03-.08-.05-.13-.08m.3.18c.03.02.05.04.08.05-.02-.01-.05-.03-.08-.05m.31.19.02.02c0-.01-.01-.01-.02-.02"/></clipPath><clipPath id="c" clipPathUnits="userSpaceOnUse"><path d="M2508.26 1549.08c6.36 7.1 14.71 13.73 24.81 19.56l1723.24 994.65c25.37 14.64 57.95 22.15 88.87 22.15 25.69 0 50.23-5.18 68.54-15.75l887.81-512.72c6.73-3.89 12.35-8.35 16.74-13.24l-12.98 7.5c-1.64 1.12-3.37 2.21-5.19 3.26l-887.81 512.72c-17.95 10.36-41.96 15.44-67.12 15.44-30.38 0-62.41-7.4-87.43-21.85l-1723.25-994.64c-6.12-3.54-11.51-7.31-16.16-11.26l-10.07-5.82"/></clipPath><clipPath id="d" clipPathUnits="userSpaceOnUse"><path d="M2497.3 1499.63c-2.31 5.11-3.5 10.49-3.5 16.05 0 11.46 5.08 22.95 14.46 33.4l10.07 5.82c-18.5-15.7-25.31-34.07-19.83-50.5-.5-1.59-.9-3.18-1.2-4.77m2828.96 499.65c-.31 1.64-.72 3.26-1.26 4.86 5.38 17.06-1.01 34.24-19.71 47.09l12.98-7.5c7.47-8.31 11.43-17.87 11.43-27.99 0-5.52-1.18-11.05-3.44-16.46"/></clipPath><clipPath id="f" clipPathUnits="userSpaceOnUse"><path d="M3478.31 945.98c-25.68 0-50.22 5.18-68.53 15.739l-887.81 512.731c-11.89 6.86-20.29 15.51-24.67 25.18.3 1.59.7 3.18 1.2 4.77 3.43-10.3 11.68-19.84 24.9-27.47l887.81-512.731c17.95-10.359 41.96-15.437 67.12-15.437 30.37 0 62.41 7.41 87.43 21.847l461.71 266.501 268.6 155.03L5289 1965.26c19.54 11.28 31.64 25.04 36 38.88.54-1.6.95-3.22 1.26-4.86-5.64-13.45-18.03-26.22-35.83-36.5L3567.19 968.129c-25.38-14.649-57.96-22.149-88.88-22.149"/></clipPath><clipPath id="h" clipPathUnits="userSpaceOnUse"><path d="M2500.22 1508.97c-.46 2.2-.7 4.44-.7 6.71 0 17.15 13.27 34.64 36.41 48l1723.24 994.64c24.59 14.21 56.13 21.49 86.01 21.49 24.64 0 48.15-4.96 65.68-15.08l887.81-512.72c16.32-9.43 25.31-22.31 25.31-36.27 0-2.4-.26-4.79-.76-7.19-4.13 8.6-11.81 16.53-23.12 23.06l-887.81 512.71c-17.95 10.36-41.97 15.45-67.13 15.45-30.37 0-62.41-7.41-87.42-21.86l-1723.25-994.64c-17.38-10.04-28.87-22.03-34.27-34.3"/></clipPath><clipPath id="j" clipPathUnits="userSpaceOnUse"><path d="M3478.32 951.602c-24.65 0-48.15 4.957-65.68 15.078l-887.81 512.73c-13.67 7.89-22.2 18.21-24.61 29.56 5.4 12.27 16.89 24.26 34.27 34.3l1723.25 994.64c25.01 14.45 57.05 21.86 87.42 21.86 25.16 0 49.18-5.09 67.13-15.45l887.81-512.71c11.31-6.53 18.99-14.46 23.12-23.06-3.14-14.76-15.74-29.32-35.65-40.81l-993.4-573.39c-23.28 26.68-49.48 49.25-77.19 65.24l-.24.15c17.68 8.11 34.75 16.88 51.09 26.32 113.23 65.37 175.59 152.4 175.59 245.05 0 49.86-18.06 98.08-52.39 142.18.54 6.13.81 12.49.81 19.09 0 111.5-78.28 247.11-174.86 302.86-28.06 16.2-54.58 23.88-78.09 23.88-17.01 0-32.44-4.02-45.73-11.74v.01l-32.83-19.21c-31.89-18.17-51.64-57.45-51.64-113.45 0-3.56.08-7.15.24-10.75-53.47 8.74-108.64 13.11-163.83 13.11-153.06 0-306.15-33.65-422.67-100.92-113.24-65.37-175.6-152.41-175.6-245.05 0-92.65 62.37-179.67 175.6-245.05 116.55-67.3 269.61-100.93 422.71-100.93 58.41 0 116.82 4.9 173.2 14.7-6.25-17.16-9.65-37.52-9.65-60.75 0-31.92 6.41-65.8 17.83-99.22l-462.19-266.78c-24.59-14.199-56.14-21.488-86.01-21.488m-522.88 626.338c-15.64 0-31.28-4.04-45.29-12.13l-83.84-48.82c-16.2-9.36-16.2-32.74 0-42.09l549.19-317.07c14.01-8.09 29.65-12.14 45.28-12.14 15.64 0 31.28 4.05 45.29 12.14l83.85 48.83c16.19 9.34 16.19 32.73 0 42.08l-549.19 317.07c-14.01 8.09-29.65 12.13-45.29 12.13m2130.51 425.65c-8.88 0-17.76-1.96-24.54-5.87-13.55-7.82-13.55-20.51 0-28.33 6.78-3.92 15.66-5.87 24.54-5.87 8.88 0 17.76 1.95 24.54 5.87 13.55 7.82 13.55 20.51 0 28.33-6.78 3.91-15.66 5.87-24.54 5.87m-182.67 106.85c-9 0-18.49-2.19-25.9-6.47-13.55-7.82-15.02-19.66-3.29-26.44l96.07-55.45c5.32-3.08 12.43-4.58 19.89-4.58 9 0 18.49 2.19 25.9 6.47 13.55 7.82 15.02 19.66 3.28 26.44l-96.06 55.46c-5.32 3.07-12.44 4.57-19.89 4.57m-548 332.67c-9 0-18.49-2.2-25.9-6.47-13.55-7.83-15.02-19.66-3.29-26.44l96.07-55.47c5.31-3.06 12.42-4.57 19.88-4.57 9 0 18.49 2.2 25.9 6.48 13.56 7.82 15.03 19.65 3.29 26.43l-96.07 55.46c-5.31 3.07-12.43 4.58-19.88 4.58m-510.13-1054.56c-152.45 0-304.92 33.51-420.99 100.53-112.12 64.72-173.86 150.68-173.86 242.04 0 91.36 61.74 177.31 173.85 242.04 116.07 67.01 268.5 100.51 420.96 100.51 55.24 0 110.48-4.4 164-13.2 1.43-24.98 6.55-50.92 14.7-76.7-57.12 13.47-117.9 20.2-178.7 20.2-120.62 0-241.26-26.52-333.08-79.54-89.3-51.55-138.48-120.21-138.48-193.3 0-73.11 49.18-141.77 138.49-193.33 91.83-53.02 212.46-79.53 333.09-79.53 120.63 0 241.26 26.51 333.1 79.53l-.87 1.5.87-1.5c89.3 51.55 138.47 120.2 138.47 193.31 0 10.84-1.08 21.58-3.21 32.19l26.96 15.78.41.24 1.36.79-.07.02c26.01 15.78 43.59 45.97 48.38 88.13 32.4-42.7 49.42-89.18 49.42-137.15 0-91.36-61.74-177.32-173.85-242.04-16.96-9.8-34.69-18.87-53.09-27.23-26.59 14.66-51.72 21.63-74.11 21.63-17.02 0-32.45-4.02-45.74-11.74v.01l-33.06-19.34c-17.58-10.09-31.46-26.62-40.34-48.85-56.8-10-115.71-15-174.61-15m-.01 73.12c-120.01 0-240.01 26.38-331.37 79.14-88.19 50.9-136.76 118.5-136.76 190.32 0 71.8 48.57 139.38 136.75 190.29 91.36 52.76 211.36 79.12 331.36 79.12 61.24 0 122.49-6.87 179.92-20.6 27.85-84.93 88.36-167.57 158.51-208.07 28.07-16.21 54.59-23.88 78.1-23.88 16.8 0 32.06 3.92 45.24 11.45l.38.22c.24.14.47.28.71.42l2.34 1.37c1.94-10.01 2.92-20.13 2.92-30.34 0-71.82-48.56-139.4-136.74-190.3-91.36-52.76-211.36-79.14-331.36-79.14m-134.42 474.43c-31.96-18.14-51.75-57.44-51.75-113.51 0-111.5 78.28-247.1 174.86-302.86 28.07-16.21 54.59-23.88 78.1-23.88 16.8 0 32.05 3.92 45.23 11.45l.01.01c.48.27.95.54 1.42.83l32.14 18.8.41.24 1.35.8-.07.01c30.74 18.65 49.7 57.41 49.7 112.25 0 111.51-78.29 247.11-174.86 302.86-28.07 16.2-54.59 23.88-78.09 23.88-17.01 0-32.44-4.02-45.74-11.74v.01l-32.71-19.15"/></clipPath><clipPath id="l" clipPathUnits="userSpaceOnUse"><path d="M2518.33 1554.9c4.65 3.95 10.04 7.72 16.16 11.26l1723.25 994.64c25.02 14.45 57.05 21.85 87.43 21.85 25.16 0 49.17-5.08 67.12-15.44l887.81-512.72c1.82-1.05 3.55-2.14 5.19-3.26l-889.53 513.56c-18.54 10.71-43.36 15.96-69.36 15.96-31.38 0-64.49-7.65-90.35-22.58L2518.33 1554.9"/></clipPath><clipPath id="m" clipPathUnits="userSpaceOnUse"><path d="M2498.5 1504.4c-5.48 16.43 1.33 34.8 19.83 50.5l1737.72 1003.27c25.86 14.93 58.97 22.58 90.35 22.58 26 0 50.82-5.25 69.36-15.96l889.53-513.56c18.7-12.85 25.09-30.03 19.71-47.09-.49 1.49-1.09 2.96-1.78 4.41.5 2.4.76 4.79.76 7.19 0 13.96-8.99 26.84-25.31 36.27l-887.81 512.72c-17.53 10.12-41.04 15.08-65.68 15.08-29.88 0-61.42-7.28-86.01-21.49l-1723.24-994.64c-23.14-13.36-36.41-30.85-36.41-48 0-2.27.24-4.51.7-6.71-.67-1.52-1.24-3.05-1.72-4.57"/></clipPath><clipPath id="n" clipPathUnits="userSpaceOnUse"><path d="M3478.33 948.762c-25.16 0-49.17 5.078-67.12 15.437L2523.4 1476.93c-13.22 7.63-21.47 17.17-24.9 27.47.48 1.52 1.05 3.05 1.72 4.57 2.41-11.35 10.94-21.67 24.61-29.56l887.81-512.73c17.53-10.121 41.03-15.078 65.68-15.078 29.87 0 61.42 7.289 86.01 21.488l462.19 266.78c.31-.92.63-1.84.95-2.76l-461.71-266.501c-25.02-14.437-57.06-21.847-87.43-21.847m817.74 443.378c-.63.74-1.27 1.48-1.9 2.21l993.4 573.39c19.91 11.49 32.51 26.05 35.65 40.81.69-1.45 1.29-2.92 1.78-4.41-4.36-13.84-16.46-27.6-36-38.88l-992.93-573.12"/></clipPath><clipPath id="o" clipPathUnits="userSpaceOnUse"><use xlink:href="#reuse-0"/></clipPath><clipPath id="p" clipPathUnits="userSpaceOnUse"><path d="M4260.58 1374.97c-23.24 26.6-49.38 49.11-77.03 65.06-1.94 1.13-3.89 2.21-5.82 3.25 13.3 5.15 26.31 10.63 39.01 16.46l.24-.15c27.71-15.99 53.91-38.56 77.19-65.24l-33.59-19.38m-86.91 70.45c-24.42 12.53-47.48 18.5-68.22 18.5-16.85 0-32.15-3.95-45.35-11.52l33.06 19.34v-.01c13.29 7.72 28.72 11.74 45.74 11.74 22.39 0 47.52-6.97 74.11-21.63-12.8-5.82-25.93-11.29-39.34-16.42"/></clipPath><clipPath id="r" clipPathUnits="userSpaceOnUse"><use xlink:href="#reuse-0"/></clipPath><clipPath id="s" clipPathUnits="userSpaceOnUse"><path d="M4262.49 1372.76c-.63.74-1.27 1.47-1.91 2.21l33.59 19.38c.63-.73 1.27-1.47 1.9-2.21l-33.58-19.38"/></clipPath><clipPath id="t" clipPathUnits="userSpaceOnUse"><use xlink:href="#reuse-0"/></clipPath><clipPath id="u" clipPathUnits="userSpaceOnUse"><path d="M4026.52 1239.87c-11.42 33.42-17.83 67.3-17.83 99.22 0 23.23 3.4 43.59 9.65 60.75 55.77 9.69 109.56 24.17 159.39 43.44 1.93-1.04 3.88-2.12 5.82-3.25 27.65-15.95 53.79-38.46 77.03-65.06l-234.06-135.1m-6.76 163.68c8.88 22.23 22.76 38.76 40.34 48.85 13.2 7.57 28.5 11.52 45.35 11.52 20.74 0 43.8-5.97 68.22-18.5-48.24-18.44-100.12-32.39-153.91-41.87"/></clipPath><clipPath id="w" clipPathUnits="userSpaceOnUse"><use xlink:href="#reuse-0"/></clipPath><clipPath id="x" clipPathUnits="userSpaceOnUse"><path d="M4027.47 1237.11c-.32.92-.64 1.84-.95 2.76l234.06 135.1c.64-.74 1.28-1.47 1.91-2.21l-235.02-135.65"/></clipPath><clipPath id="y" clipPathUnits="userSpaceOnUse"><path d="M5085.95 1963.52c-8.88 0-17.76 1.95-24.54 5.87-13.55 7.82-13.55 20.51 0 28.33 6.78 3.91 15.66 5.87 24.54 5.87 8.88 0 17.76-1.96 24.54-5.87 13.55-7.82 13.55-20.51 0-28.33-6.78-3.92-15.66-5.87-24.54-5.87"/></clipPath><clipPath id="A" clipPathUnits="userSpaceOnUse"><path d="M4990.05 2017.5c-7.46 0-14.57 1.5-19.89 4.58l-96.07 55.45c-11.73 6.78-10.26 18.62 3.29 26.44 7.41 4.28 16.9 6.47 25.9 6.47 7.45 0 14.57-1.5 19.89-4.57l96.06-55.46c11.74-6.78 10.27-18.62-3.28-26.44-7.41-4.28-16.9-6.47-25.9-6.47"/></clipPath><clipPath id="C" clipPathUnits="userSpaceOnUse"><path d="M4442.04 2350.16c-7.46 0-14.57 1.51-19.88 4.57l-96.07 55.47c-11.73 6.78-10.26 18.61 3.29 26.44 7.41 4.27 16.9 6.47 25.9 6.47 7.45 0 14.57-1.51 19.88-4.58l96.07-55.46c11.74-6.78 10.27-18.61-3.29-26.43-7.41-4.28-16.9-6.48-25.9-6.48"/></clipPath><clipPath id="E" clipPathUnits="userSpaceOnUse"><path d="M3957.16 1507.3s.01 0 .01.01l-.01-.01m1.43.84c30.98 18.54 50.1 57.45 50.1 112.54 0 111.51-78.29 247.11-174.86 302.87-28.07 16.2-54.59 23.88-78.1 23.88-16.7 0-31.89-3.88-45.01-11.33l32.71 19.15v-.01c13.3 7.72 28.73 11.74 45.74 11.74 23.5 0 50.02-7.68 78.09-23.88 96.57-55.75 174.86-191.35 174.86-302.86 0-54.84-18.96-93.6-49.7-112.25l.07-.01-1.35-.8-.41-.24-32.14-18.8"/></clipPath><clipPath id="G" clipPathUnits="userSpaceOnUse"><path d="M3911.93 1495.85c-23.51 0-50.03 7.67-78.1 23.88-96.58 55.76-174.86 191.36-174.86 302.86 0 56.07 19.79 95.37 51.75 113.51 13.12 7.45 28.31 11.33 45.01 11.33 23.51 0 50.03-7.68 78.1-23.88 96.57-55.76 174.86-191.36 174.86-302.87 0-55.09-19.12-94-50.1-112.54-.47-.29-.94-.56-1.42-.83 0-.01-.01-.01-.01-.01-13.18-7.53-28.43-11.45-45.23-11.45"/></clipPath><clipPath id="I" clipPathUnits="userSpaceOnUse"><path d="M3845.13 1458.27c-120.63 0-241.26 26.51-333.09 79.53-89.31 51.56-138.49 120.22-138.49 193.33 0 73.09 49.18 141.75 138.48 193.3 91.82 53.02 212.46 79.54 333.08 79.54 60.8 0 121.58-6.73 178.7-20.2.4-1.28.81-2.55 1.23-3.83-57.43 13.73-118.68 20.6-179.92 20.6-120 0-240-26.36-331.36-79.12-88.18-50.91-136.75-118.49-136.75-190.29 0-71.82 48.57-139.42 136.76-190.32 91.36-52.76 211.36-79.14 331.37-79.14 120 0 240 26.38 331.36 79.14 88.18 50.9 136.74 118.48 136.74 190.3 0 10.21-.98 20.33-2.92 30.34l3.17 1.85c2.13-10.61 3.21-21.35 3.21-32.19 0-73.11-49.17-141.76-138.47-193.31l-.87 1.5.87-1.5c-91.84-53.02-212.47-79.53-333.1-79.53"/></clipPath><clipPath id="K" clipPathUnits="userSpaceOnUse"><path d="M3845.14 1385.14c-153.1 0-306.16 33.63-422.71 100.93-113.23 65.38-175.6 152.4-175.6 245.05 0 92.64 62.36 179.68 175.6 245.05 116.52 67.27 269.61 100.92 422.67 100.92 55.19 0 110.36-4.37 163.83-13.11.05-1.17.11-2.33.18-3.51-53.52 8.8-108.76 13.2-164 13.2-152.46 0-304.89-33.5-420.96-100.51-112.11-64.73-173.85-150.68-173.85-242.04 0-91.36 61.74-177.32 173.86-242.04 116.07-67.02 268.54-100.53 420.99-100.53 58.9 0 117.81 5 174.61 15-.48-1.22-.96-2.46-1.42-3.71-56.38-9.8-114.79-14.7-173.2-14.7m371.6 74.6c-1.25.71-2.49 1.41-3.73 2.1 18.4 8.36 36.13 17.43 53.09 27.23 112.11 64.72 173.85 150.68 173.85 242.04 0 47.97-17.02 94.45-49.42 137.15.19 1.66.35 3.34.5 5.03 34.33-44.1 52.39-92.32 52.39-142.18 0-92.65-62.36-179.68-175.59-245.05-16.34-9.44-33.41-18.21-51.09-26.32"/></clipPath><clipPath id="M" clipPathUnits="userSpaceOnUse"><path d="M4177.73 1443.28c-1.35.74-2.71 1.45-4.06 2.14 13.41 5.13 26.54 10.6 39.34 16.42 1.24-.69 2.48-1.39 3.73-2.1-12.7-5.83-25.71-11.31-39.01-16.46"/></clipPath><clipPath id="O" clipPathUnits="userSpaceOnUse"><path d="M4018.34 1399.84c.46 1.25.94 2.49 1.42 3.71 53.79 9.48 105.67 23.43 153.91 41.87 1.35-.69 2.71-1.4 4.06-2.14-49.83-19.27-103.62-33.75-159.39-43.44"/></clipPath><clipPath id="Q" clipPathUnits="userSpaceOnUse"><path d="m4118.92 1684.44-109.9-63.35-437.69 252.7v485.96l547.59-316.15v-359.16"/></clipPath><clipPath id="R" clipPathUnits="userSpaceOnUse"><path d="M3420.78 1145.69c-15.63 0-31.27 4.05-45.28 12.14l-549.19 317.07c-16.2 9.35-16.2 32.73 0 42.09l83.84 48.82c14.01 8.09 29.65 12.13 45.29 12.13s31.28-4.04 45.29-12.13l549.19-317.07c16.19-9.35 16.19-32.74 0-42.08l-83.85-48.83c-14.01-8.09-29.65-12.14-45.29-12.14"/></clipPath><radialGradient id="i" cx="0" cy="0" r="1" fx="0" fy="0" gradientTransform="matrix(2272.1 0 0 -2272.1 3840.54 1738.25)" gradientUnits="userSpaceOnUse" spreadMethod="pad"><stop offset="0" stop-color="#3f7baa"/><stop offset="1" stop-color="#262864"/></radialGradient><radialGradient id="k" cx="0" cy="0" r="1" fx="0" fy="0" gradientTransform="matrix(2272.1 0 0 -2272.1 3840.54 1738.25)" gradientUnits="userSpaceOnUse" spreadMethod="pad"><stop offset="0" stop-color="#4787b8"/><stop offset="1" stop-color="#322f85"/></radialGradient><radialGradient id="q" cx="0" cy="0" r="1" fx="0" fy="0" gradientTransform="matrix(2272.1 0 0 -2272.1 3840.54 1738.25)" gradientUnits="userSpaceOnUse" spreadMethod="pad"><stop offset="0" stop-color="#5194be"/><stop offset="1" stop-color="#3c3995"/></radialGradient><radialGradient id="v" cx="0" cy="0" r="1" fx="0" fy="0" gradientTransform="matrix(2272.1 0 0 -2272.1 3840.54 1738.25)" gradientUnits="userSpaceOnUse" spreadMethod="pad"><stop offset="0" stop-color="#4a92bd"/><stop offset="1" stop-color="#343891"/></radialGradient><radialGradient id="z" cx="0" cy="0" r="1" fx="0" fy="0" gradientTransform="matrix(2272.1 0 0 -2272.1 3840.54 1738.25)" gradientUnits="userSpaceOnUse" spreadMethod="pad"><stop offset="0" stop-color="#36549c"/><stop offset="1" stop-color="#2f2d77"/></radialGradient><radialGradient id="B" cx="0" cy="0" r="1" fx="0" fy="0" gradientTransform="matrix(2272.1 0 0 -2272.1 3840.54 1738.25)" gradientUnits="userSpaceOnUse" spreadMethod="pad"><stop offset="0" stop-color="#36549c"/><stop offset="1" stop-color="#2f2d77"/></radialGradient><radialGradient id="D" cx="0" cy="0" r="1" fx="0" fy="0" gradientTransform="matrix(2272.1 0 0 -2272.1 3840.54 1738.25)" gradientUnits="userSpaceOnUse" spreadMethod="pad"><stop offset="0" stop-color="#36549c"/><stop offset="1" stop-color="#2f2d77"/></radialGradient><radialGradient id="F" cx="0" cy="0" r="1" fx="0" fy="0" gradientTransform="matrix(2272.1 0 0 -2272.1 3840.54 1738.25)" gradientUnits="userSpaceOnUse" spreadMethod="pad"><stop offset="0" stop-color="#5194be"/><stop offset="1" stop-color="#3c3995"/></radialGradient><radialGradient id="H" cx="0" cy="0" r="1" fx="0" fy="0" gradientTransform="matrix(2272.1 0 0 -2272.1 3840.54 1738.25)" gradientUnits="userSpaceOnUse" spreadMethod="pad"><stop offset="0" stop-color="#4a92bd"/><stop offset="1" stop-color="#343891"/></radialGradient><radialGradient id="J" cx="0" cy="0" r="1" fx="0" fy="0" gradientTransform="matrix(2272.1 0 0 -2272.1 3840.54 1738.25)" gradientUnits="userSpaceOnUse" spreadMethod="pad"><stop offset="0" stop-color="#52b2c6"/><stop offset="1" stop-color="#4170af"/></radialGradient><radialGradient id="L" cx="0" cy="0" r="1" fx="0" fy="0" gradientTransform="matrix(2272.1 0 0 -2272.1 3840.54 1738.25)" gradientUnits="userSpaceOnUse" spreadMethod="pad"><stop offset="0" stop-color="#4d9cbf"/><stop offset="1" stop-color="#39489c"/></radialGradient><radialGradient id="N" cx="0" cy="0" r="1" fx="0" fy="0" gradientTransform="matrix(2272.1 0 0 -2272.1 3840.54 1738.25)" gradientUnits="userSpaceOnUse" spreadMethod="pad"><stop offset="0" stop-color="#54a7c4"/><stop offset="1" stop-color="#4158a7"/></radialGradient><radialGradient id="P" cx="0" cy="0" r="1" fx="0" fy="0" gradientTransform="matrix(2272.1 0 0 -2272.1 3840.54 1738.25)" gradientUnits="userSpaceOnUse" spreadMethod="pad"><stop offset="0" stop-color="#4fa5c2"/><stop offset="1" stop-color="#3b58a4"/></radialGradient><radialGradient id="S" cx="0" cy="0" r="1" fx="0" fy="0" gradientTransform="matrix(2272.1 0 0 -2272.1 3840.54 1738.25)" gradientUnits="userSpaceOnUse" spreadMethod="pad"><stop offset="0" stop-color="#36549c"/><stop offset="1" stop-color="#2f2d77"/></radialGradient><linearGradient id="b" x1="0" x2="1" y1="0" y2="0" gradientTransform="matrix(2902.89 0 0 -2902.89 2461.14 1638.73)" gradientUnits="userSpaceOnUse" spreadMethod="pad"><stop offset="0" stop-color="#c1b9e2"/><stop offset="1" stop-color="#5659b1"/></linearGradient><linearGradient id="e" x1="0" x2="1" y1="0" y2="0" gradientTransform="matrix(-810.319 1075.33 1075.33 810.319 4316.91 1228.04)" gradientUnits="userSpaceOnUse" spreadMethod="pad"><stop offset="0" stop-color="#56c4c8"/><stop offset="1" stop-color="#262864"/></linearGradient><linearGradient id="g" x1="0" x2="1" y1="0" y2="0" gradientTransform="matrix(-810.319 1075.33 1075.33 810.319 4316.91 1228.04)" gradientUnits="userSpaceOnUse" spreadMethod="pad"><stop offset="0" stop-color="#5ac8cd"/><stop offset="1" stop-color="#322f85"/></linearGradient></defs><path fill="#76d1cb" d="M149.11119656 334.28126008c6.32347985 3.64940924 17.41386623 3.18714125 24.72490605-1.03723998l275.23120645-158.9055427c3.7965999-2.1914266 5.97391986-5.0741332 5.97391986-7.90669313 0-2.31997327-1.48290663-4.45339989-4.17594657-6.00839985L306.5523393 77.10362651c-6.3203465-3.64610658-17.4122929-3.18367992-24.72489271 1.03771997L6.59622679 237.04656918c-3.79502657 2.19299994-5.97390651 5.07414653-5.97390651 7.90670646 0 2.31995994 1.4828933 4.4533999 4.17593322 6.00839985l144.31294306 83.31958459m10.7157464 3.07255325c-4.13361323 0-8.08069313-.83393998-11.02611972-2.53315327L4.48788018 251.50091548C1.59420025 249.83147552 2.9e-7 247.50523558 2.9e-7 244.95327564c0-3.06141325 2.29174661-6.14007984 6.28585318-8.44437312l275.23121978-158.9052227c7.48346648-4.32015989 18.8528662-4.78727987 25.3472127-1.03771997l144.31136973 83.31818459c2.89369326 1.67099995 4.48789322 3.9956799 4.48789322 6.54763983 0 3.06141326-2.29175994 6.14007985-6.28429318 8.4443598L174.14647594 333.78152675c-4.0881599 2.36057327-9.33943977 3.57228657-14.31953298 3.57228657"/><g clip-path="url(#a)" transform="matrix(.15675 0 0 -.15675 -385.4829634 440.1738281)"><path fill="url(#b)" d="M3478.76 821.32c-26 0-50.82 5.25-69.36 15.961l-851.2 491.439-3.96 2.29-65.47 37.79c-18.66 10.77-27.64 25.22-27.53 40.33l-.1-.01.01 82.02c.05-1.48.19-2.96.41-4.42-2.32-16.86 6.54-33.29 27.21-45.23l920.63-531.521c18.54-10.707 43.37-15.957 69.37-15.957 31.38 0 64.49 7.648 90.34 22.578l1755.81 1013.72c28.2 16.28 41.28 37.52 38.65 57.05.23 1.49.38 2.98.43 4.47h.03v-82.89l-.14-.02c-.41-17.87-13.52-36.61-38.97-51.3l-53.99-31.17-3.97-2.29-1697.85-980.262c-25.86-14.929-58.96-22.578-90.35-22.578m0 83.45c-26 0-50.82 5.242-69.36 15.949l-920.63 531.521c-.07.04-.14.08-.2.12.07-.04.13-.08.2-.12l920.63-531.521c18.54-10.707 43.36-15.949 69.36-15.949 31.38 0 64.5 7.652 90.35 22.57l1755.81 1013.72c.74.43 1.47.85 2.19 1.29-.72-.44-1.45-.86-2.19-1.29L3569.11 927.34c-25.85-14.918-58.97-22.57-90.35-22.57m-990.32 547.67c-.02.01-.05.02-.07.04.02-.02.05-.03.07-.04m-.23.13c-.01.01-.01.01-.02.01.01 0 .01 0 .02-.01m2838.93 489.8c.07.04.15.09.23.13-.08-.04-.16-.09-.23-.13m.31.18c.05.04.11.08.17.11-.06-.04-.11-.07-.17-.11m.3.19c.05.03.09.05.13.08-.04-.03-.08-.05-.13-.08m.3.18c.03.02.05.04.08.05-.02-.01-.05-.03-.08-.05m.31.19.02.02c0-.01-.01-.01-.02-.02"/></g><path fill="#262864" d="M148.9560099 295.8469277 4.64306684 212.52859645c-6.41753317-3.7056799-5.6118132-10.1765064 1.79797329-14.4559063l275.23121979-158.9036627c7.40978648-4.27782656 18.6193062-4.74338654 25.03526604-1.03770664l144.31294306 83.31817125c6.41753317 3.70567991 5.61338652 10.17650642-1.7979733 14.4543463l-275.23120645 158.9052227c-7.40978648 4.27766656-18.6193062 4.74182655-25.03527937 1.03786664"/><path fill="#fff" d="m449.22249573 135.90383837-275.23120646 158.9052227c-7.40978648 4.27766655-18.6193062 4.74182654-25.03527937 1.03786663L4.64306684 212.52859645c-2.57233327-1.48603996-3.96589323-3.41881324-4.2558799-5.47386653-.39658665 2.6663866.98754665 5.2716532 4.2558799 7.15897316l144.31294306 83.31834458c6.41597317 3.7051999 17.6254929 3.24167992 25.03527937-1.03787997l275.23120646-158.9052227c4.43929322-2.56293327 6.4880665-5.90807985 6.05386651-8.97890644-.38247999 2.56763994-2.41871994 5.1948532-6.05386651 7.29379982"/><path fill="#322f85" d="M159.7626763 295.0380744c-3.94394657 0-7.70918648-.79662666-10.52293307-2.42043995l-139.1682632-80.37119799c-3.25265324-1.87791995-4.58819988-4.48945322-4.09129322-7.14643982.68658665 1.5158133 2.00331995 2.8717466 3.86713323 3.9470799l139.1682632 80.372918c2.87017325 1.65517328 6.71693316 2.46715993 10.74238639 2.46715993 4.84685321 0 9.95391975-1.1756533 13.93234632-3.47195991l270.12571325-155.9160761c2.79023993-1.61142663 4.73242654-3.61318658 5.61651986-5.7215332.55803998 3.0316266-1.43430664 6.37677318-5.84067986 8.91933311l-270.12571325 155.9159161c-3.9219999 2.26494662-8.94283977 3.42523992-13.70347965 3.42523992"/><g clip-path="url(#c)" transform="matrix(.15675 0 0 -.15675 -385.4829634 440.1738281)"><image xlink:href="../../../../../../ink_ext_XXXXXX_img0.png" width="1" height="1" image-rendering="optimizeSpeed" preserveAspectRatio="none" transform="matrix(2824.2 0 0 -1052.2 2499.9 2593.1)"/></g><g clip-path="url(#d)" transform="matrix(.15675 0 0 -.15675 -385.4829634 440.1738281)"><path fill="url(#e)" d="M2497.3 1499.63c-2.31 5.11-3.5 10.49-3.5 16.05 0 11.46 5.08 22.95 14.46 33.4l10.07 5.82c-18.5-15.7-25.31-34.07-19.83-50.5-.5-1.59-.9-3.18-1.2-4.77m2828.96 499.65c-.31 1.64-.72 3.26-1.26 4.86 5.38 17.06-1.01 34.24-19.71 47.09l12.98-7.5c7.47-8.31 11.43-17.87 11.43-27.99 0-5.52-1.18-11.05-3.44-16.46"/></g><g clip-path="url(#f)" transform="matrix(.15675 0 0 -.15675 -385.4829634 440.1738281)"><path fill="url(#g)" d="M3478.31 945.98c-25.68 0-50.22 5.18-68.53 15.739l-887.81 512.731c-11.89 6.86-20.29 15.51-24.67 25.18.3 1.59.7 3.18 1.2 4.77 3.43-10.3 11.68-19.84 24.9-27.47l887.81-512.731c17.95-10.359 41.96-15.437 67.12-15.437 30.37 0 62.41 7.41 87.43 21.847l461.71 266.501 268.6 155.03L5289 1965.26c19.54 11.28 31.64 25.04 36 38.88.54-1.6.95-3.22 1.26-4.86-5.64-13.45-18.03-26.22-35.83-36.5L3567.19 968.129c-25.38-14.649-57.96-22.149-88.88-22.149"/></g><g clip-path="url(#h)" transform="matrix(.15675 0 0 -.15675 -385.4829634 440.1738281)"><path fill="url(#i)" d="M2500.22 1508.97c-.46 2.2-.7 4.44-.7 6.71 0 17.15 13.27 34.64 36.41 48l1723.24 994.64c24.59 14.21 56.13 21.49 86.01 21.49 24.64 0 48.15-4.96 65.68-15.08l887.81-512.72c16.32-9.43 25.31-22.31 25.31-36.27 0-2.4-.26-4.79-.76-7.19-4.13 8.6-11.81 16.53-23.12 23.06l-887.81 512.71c-17.95 10.36-41.97 15.45-67.13 15.45-30.37 0-62.41-7.41-87.42-21.86l-1723.25-994.64c-17.38-10.04-28.87-22.03-34.27-34.3"/></g><g clip-path="url(#j)" transform="matrix(.15675 0 0 -.15675 -385.4829634 440.1738281)"><path fill="url(#k)" d="M3478.32 951.602c-24.65 0-48.15 4.957-65.68 15.078l-887.81 512.73c-13.67 7.89-22.2 18.21-24.61 29.56 5.4 12.27 16.89 24.26 34.27 34.3l1723.25 994.64c25.01 14.45 57.05 21.86 87.42 21.86 25.16 0 49.18-5.09 67.13-15.45l887.81-512.71c11.31-6.53 18.99-14.46 23.12-23.06-3.14-14.76-15.74-29.32-35.65-40.81l-993.4-573.39c-23.28 26.68-49.48 49.25-77.19 65.24l-.24.15c17.68 8.11 34.75 16.88 51.09 26.32 113.23 65.37 175.59 152.4 175.59 245.05 0 49.86-18.06 98.08-52.39 142.18.54 6.13.81 12.49.81 19.09 0 111.5-78.28 247.11-174.86 302.86-28.06 16.2-54.58 23.88-78.09 23.88-17.01 0-32.44-4.02-45.73-11.74v.01l-32.83-19.21c-31.89-18.17-51.64-57.45-51.64-113.45 0-3.56.08-7.15.24-10.75-53.47 8.74-108.64 13.11-163.83 13.11-153.06 0-306.15-33.65-422.67-100.92-113.24-65.37-175.6-152.41-175.6-245.05 0-92.65 62.37-179.67 175.6-245.05 116.55-67.3 269.61-100.93 422.71-100.93 58.41 0 116.82 4.9 173.2 14.7-6.25-17.16-9.65-37.52-9.65-60.75 0-31.92 6.41-65.8 17.83-99.22l-462.19-266.78c-24.59-14.199-56.14-21.488-86.01-21.488m-522.88 626.338c-15.64 0-31.28-4.04-45.29-12.13l-83.84-48.82c-16.2-9.36-16.2-32.74 0-42.09l549.19-317.07c14.01-8.09 29.65-12.14 45.28-12.14 15.64 0 31.28 4.05 45.29 12.14l83.85 48.83c16.19 9.34 16.19 32.73 0 42.08l-549.19 317.07c-14.01 8.09-29.65 12.13-45.29 12.13m2130.51 425.65c-8.88 0-17.76-1.96-24.54-5.87-13.55-7.82-13.55-20.51 0-28.33 6.78-3.92 15.66-5.87 24.54-5.87 8.88 0 17.76 1.95 24.54 5.87 13.55 7.82 13.55 20.51 0 28.33-6.78 3.91-15.66 5.87-24.54 5.87m-182.67 106.85c-9 0-18.49-2.19-25.9-6.47-13.55-7.82-15.02-19.66-3.29-26.44l96.07-55.45c5.32-3.08 12.43-4.58 19.89-4.58 9 0 18.49 2.19 25.9 6.47 13.55 7.82 15.02 19.66 3.28 26.44l-96.06 55.46c-5.32 3.07-12.44 4.57-19.89 4.57m-548 332.67c-9 0-18.49-2.2-25.9-6.47-13.55-7.83-15.02-19.66-3.29-26.44l96.07-55.47c5.31-3.06 12.42-4.57 19.88-4.57 9 0 18.49 2.2 25.9 6.48 13.56 7.82 15.03 19.65 3.29 26.43l-96.07 55.46c-5.31 3.07-12.43 4.58-19.88 4.58m-510.13-1054.56c-152.45 0-304.92 33.51-420.99 100.53-112.12 64.72-173.86 150.68-173.86 242.04 0 91.36 61.74 177.31 173.85 242.04 116.07 67.01 268.5 100.51 420.96 100.51 55.24 0 110.48-4.4 164-13.2 1.43-24.98 6.55-50.92 14.7-76.7-57.12 13.47-117.9 20.2-178.7 20.2-120.62 0-241.26-26.52-333.08-79.54-89.3-51.55-138.48-120.21-138.48-193.3 0-73.11 49.18-141.77 138.49-193.33 91.83-53.02 212.46-79.53 333.09-79.53 120.63 0 241.26 26.51 333.1 79.53l-.87 1.5.87-1.5c89.3 51.55 138.47 120.2 138.47 193.31 0 10.84-1.08 21.58-3.21 32.19l26.96 15.78.41.24 1.36.79-.07.02c26.01 15.78 43.59 45.97 48.38 88.13 32.4-42.7 49.42-89.18 49.42-137.15 0-91.36-61.74-177.32-173.85-242.04-16.96-9.8-34.69-18.87-53.09-27.23-26.59 14.66-51.72 21.63-74.11 21.63-17.02 0-32.45-4.02-45.74-11.74v.01l-33.06-19.34c-17.58-10.09-31.46-26.62-40.34-48.85-56.8-10-115.71-15-174.61-15m-.01 73.12c-120.01 0-240.01 26.38-331.37 79.14-88.19 50.9-136.76 118.5-136.76 190.32 0 71.8 48.57 139.38 136.75 190.29 91.36 52.76 211.36 79.12 331.36 79.12 61.24 0 122.49-6.87 179.92-20.6 27.85-84.93 88.36-167.57 158.51-208.07 28.07-16.21 54.59-23.88 78.1-23.88 16.8 0 32.06 3.92 45.24 11.45l.38.22c.24.14.47.28.71.42l2.34 1.37c1.94-10.01 2.92-20.13 2.92-30.34 0-71.82-48.56-139.4-136.74-190.3-91.36-52.76-211.36-79.14-331.36-79.14m-134.42 474.43c-31.96-18.14-51.75-57.44-51.75-113.51 0-111.5 78.28-247.1 174.86-302.86 28.07-16.21 54.59-23.88 78.1-23.88 16.8 0 32.05 3.92 45.23 11.45l.01.01c.48.27.95.54 1.42.83l32.14 18.8.41.24 1.35.8-.07.01c30.74 18.65 49.7 57.41 49.7 112.25 0 111.51-78.29 247.11-174.86 302.86-28.07 16.2-54.59 23.88-78.09 23.88-17.01 0-32.44-4.02-45.74-11.74v.01l-32.71-19.15"/></g><g clip-path="url(#l)" transform="matrix(.15675 0 0 -.15675 -385.4829634 440.1738281)"><image xlink:href="../../../../../../ink_ext_XXXXXX_img1.png" width="1" height="1" image-rendering="optimizeSpeed" preserveAspectRatio="none" transform="matrix(2804.2 0 0 -1042.2 2509.9 2588.1)"/></g><g clip-path="url(#m)" transform="matrix(.15675 0 0 -.15675 -385.4829634 440.1738281)"><image xlink:href="../../../../../../ink_ext_XXXXXX_img2.png" width="1" height="1" image-rendering="optimizeSpeed" preserveAspectRatio="none" transform="matrix(2852.2 0 0 -1090.2 2485.9 2588.1)"/></g><g clip-path="url(#n)" transform="matrix(.15675 0 0 -.15675 -385.4829634 440.1738281)"><image xlink:href="../../../../../../ink_ext_XXXXXX_img3.png" width="1" height="1" image-rendering="optimizeSpeed" preserveAspectRatio="none" transform="matrix(2842.2 0 0 -1076.2 2490.9 2017.1)"/></g><g clip-path="url(#o)" transform="matrix(.15675 0 0 -.15675 -385.4829634 440.1738281)"><g clip-path="url(#p)"><path fill="url(#q)" d="M4260 1374v1h-1v1h-1v1h-1v2h-1v1h-1v1h-1v1h-1v1h-1v1h-1v1h-1v1h-1v1h-1v1h-1v1h-1v1h-1v1h-1v1h-1v1h-1v1h-1v1h-1v1h-1v1h-1v1h-1v1h-1v1h-1v1h-1v1h-2v1h-1v1h-1v1h-1v1h-1v1h-1v1h-1v1h-1v1h-1v1h-1v1h-2v1h-1v1h-1v1h-2v1h-1v1h-1v1h-1v1h-2v1h-1v1h-1v1h-2v1h-1v1h-1v1h-1v1h-2v1h-1v1h-2v1h-1v1h-2v1h-1v1h-2v1h-1v1h-2v1h-1v1h-2v1h-1v1h-2v1h-2v1h-2v1h-1v1h-2v1h-1v1h2v1h3v1h2v1h2v1h3v1h2v1h2v1h3v1h2v1h3v1h2v1h2v1h3v1h2v1h2v1h3v1h4v-1h1v-1h2v-1h2v-1h1v-1h2v-1h1v-1h2v-1h1v-1h2v-1h1v-1h2v-1h1v-1h1v-1h2v-1h1v-1h1v-1h2v-1h1v-1h1v-1h1v-1h2v-1h1v-1h1v-1h2v-1h1v-1h1v-1h1v-1h2v-1h1v-1h1v-1h1v-1h1v-1h1v-1h1v-1h1v-1h1v-1h1v-1h2v-1h1v-1h1v-1h1v-1h1v-1h1v-1h1v-1h1v-1h1v-1h1v-1h1v-1h1v-1h1v-1h1v-1h1v-1h1v-1h1v-1h1v-1h1v-1h1v-1h1v-1h1v-1h1v-2h1v-1h1v-1h1v-1h1v-1h-1v-1h-2v-1h-1v-1h-2v-1h-2v-1h-2v-1h-1v-1h-2v-1h-2v-1h-2v-1h-1v-1h-2v-1h-2v-1h-1v-1h-2v-1h-2v-1h-2v-1h-1v-1h-2v-1h-2v-1zm-88 71v1h-2v1h-2v1h-2v1h-3v1h-2v1h-2v1h-3v1h-2v1h-3v1h-3v1h-3v1h-3v1h-3v1h-4v1h-5v1h-5v1h-6v1h-26v-1h-6v-1h-5v-1h-3v-1h-3v-1h-3v-1h-3v-1h-2v-1h-2v-1h-3v-1h-1v-1h-2v1h1v1h1v1h2v1h2v1h1v1h2v1h2v1h2v1h1v1h2v1h2v1h1v1h2v1h2v1h2v1h1v1h2v1h2v1h1v1h2v1h2v1h2v1h2v1h2v1h3v1h3v1h3v1h3v1h4v1h5v1h7v1h19v-1h9v-1h5v-1h4v-1h5v-1h4v-1h3v-1h3v-1h3v-1h3v-1h2v-1h3v-1h3v-1h2v-1h2v-1h2v-1h2v-1h2v-1h3v-1h2v-1h1v-1h2v-1h1v-1h-2v-1h-3v-1h-2v-1h-2v-1h-3v-1h-2v-1h-3v-1h-2v-1h-2v-1h-3v-1h-2v-1h-3v-1h-2v-1h-2v-1h-3v-1h-2v-1"/></g></g><g clip-path="url(#r)" transform="matrix(.15675 0 0 -.15675 -385.4829634 440.1738281)"><g clip-path="url(#s)"><image xlink:href="../../../../../../ink_ext_XXXXXX_img4.png" width="1" height="1" image-rendering="optimizeSpeed" preserveAspectRatio="none" transform="matrix(54.2002 0 0 -39.2 4251.9 1403.1)"/></g></g><g clip-path="url(#t)" transform="matrix(.15675 0 0 -.15675 -385.4829634 440.1738281)"><g clip-path="url(#u)"><path fill="url(#v)" d="M4026 1239v2h-1v3h-1v3h-1v3h-1v4h-1v3h-1v4h-1v3h-1v5h-1v4h-1v5h-1v4h-1v5h-1v5h-1v7h-1v7h-1v7h-1v15h-1v22h1v12h1v9h1v5h1v5h1v5h1v4h1v3h1v4h1v2h1v1h1v1h6v1h5v1h5v1h5v1h5v1h4v1h5v1h5v1h4v1h4v1h4v1h5v1h4v1h4v1h4v1h4v1h4v1h4v1h3v1h4v1h3v1h3v1h4v1h3v1h3v1h4v1h3v1h3v1h4v1h3v1h3v1h3v1h3v1h3v1h2v1h3v1h3v1h3v1h3v1h3v1h2v1h3v1h3v1h2v-1h2v-1h1v-1h2v-1h2v-1h2v-1h1v-1h2v-1h1v-1h2v-1h1v-1h2v-1h1v-1h2v-1h1v-1h2v-1h1v-1h2v-1h1v-1h1v-1h1v-1h2v-1h1v-1h1v-1h2v-1h1v-1h1v-1h1v-1h2v-1h1v-1h1v-1h2v-1h1v-1h1v-1h1v-1h1v-1h1v-1h1v-1h1v-1h1v-1h1v-1h2v-1h1v-1h1v-1h1v-1h1v-1h1v-1h1v-1h1v-1h1v-1h1v-1h1v-1h1v-1h1v-1h1v-1h1v-1h1v-1h1v-1h1v-1h1v-1h1v-1h1v-1h1v-1h1v-1h1v-2h1v-1h1v-1h1v-2h-2v-1h-1v-1h-2v-1h-2v-1h-2v-1h-1v-1h-2v-1h-2v-1h-1v-1h-2v-1h-2v-1h-2v-1h-1v-1h-2v-1h-2v-1h-2v-1h-1v-1h-2v-1h-2v-1h-2v-1h-1v-1h-2v-1h-2v-1h-1v-1h-2v-1h-2v-1h-2v-1h-1v-1h-2v-1h-2v-1h-2v-1h-1v-1h-2v-1h-2v-1h-2v-1h-1v-1h-2v-1h-2v-1h-1v-1h-2v-1h-2v-1h-2v-1h-1v-1h-2v-1h-2v-1h-2v-1h-1v-1h-2v-1h-2v-1h-1v-1h-2v-1h-2v-1h-2v-1h-1v-1h-2v-1h-2v-1h-2v-1h-1v-1h-2v-1h-2v-1h-2v-1h-1v-1h-2v-1h-2v-1h-1v-1h-2v-1h-2v-1h-2v-1h-1v-1h-2v-1h-2v-1h-2v-1h-1v-1h-2v-1h-2v-1h-2v-1h-1v-1h-2v-1h-2v-1h-1v-1h-2v-1h-2v-1h-2v-1h-1v-1h-2v-1h-2v-1h-2v-1h-1v-1h-2v-1h-2v-1h-2v-1h-1v-1h-2v-1h-2v-1h-1v-1h-2v-1h-2v-1h-2v-1h-1v-1h-2v-1h-2v-1h-2v-1h-1v-1h-2v-1h-2v-1h-2v-1h-1v-1h-2v-1h-2v-1h-1v-1h-2v-1h-2v-1h-2v-1h-1v-1h-2v-1h-2v-1h-2v-1h-1v-1h-2v-1h-2v-1h-2v-1h-1v-1h-2v-1h-2v-1h-1v-1h-2v-1h-2v-1h-2v-1h-1v-1h-2v-1h-2v-1h-2v-1h-1v-1h-2v-1h-2v-1zm-7 164v2h1v2h1v2h1v2h1v2h1v2h1v2h1v2h1v2h1v1h1v1h1v2h1v1h1v2h1v1h1v2h1v1h1v1h1v1h1v1h1v1h1v1h1v1h1v1h1v1h1v1h1v1h1v1h1v1h1v1h1v1h1v1h2v1h1v1h1v1h2v1h1v1h2v1h2v1h1v1h3v1h2v1h2v1h3v1h3v1h3v1h3v1h5v1h6v1h28v-1h6v-1h5v-1h5v-1h4v-1h3v-1h3v-1h3v-1h3v-1h3v-1h2v-1h3v-1h2v-1h2v-1h3v-1h2v-1h2v-1h2v-1h1v-1h-1v-1h-3v-1h-2v-1h-3v-1h-3v-1h-3v-1h-3v-1h-2v-1h-3v-1h-3v-1h-3v-1h-3v-1h-3v-1h-3v-1h-3v-1h-4v-1h-3v-1h-4v-1h-3v-1h-3v-1h-4v-1h-3v-1h-3v-1h-4v-1h-3v-1h-4v-1h-4v-1h-4v-1h-4v-1h-5v-1h-4v-1h-4v-1h-4v-1h-4v-1h-4v-1h-5v-1h-5v-1h-5v-1h-5v-1h-4v-1h-6v-1h-5v-1"/></g></g><g clip-path="url(#w)" transform="matrix(.15675 0 0 -.15675 -385.4829634 440.1738281)"><g clip-path="url(#x)"><image xlink:href="../../../../../../ink_ext_XXXXXX_img5.png" width="1" height="1" image-rendering="optimizeSpeed" preserveAspectRatio="none" transform="matrix(255.2 0 0 -155.2 4016.9 1384.1)"/></g></g><g clip-path="url(#y)" transform="matrix(.15675 0 0 -.15675 -385.4829634 440.1738281)"><path fill="url(#z)" d="M5085.95 1963.52c-8.88 0-17.76 1.95-24.54 5.87-13.55 7.82-13.55 20.51 0 28.33 6.78 3.91 15.66 5.87 24.54 5.87 8.88 0 17.76-1.96 24.54-5.87 13.55-7.82 13.55-20.51 0-28.33-6.78-3.92-15.66-5.87-24.54-5.87"/></g><g clip-path="url(#A)" transform="matrix(.15675 0 0 -.15675 -385.4829634 440.1738281)"><path fill="url(#B)" d="M4990.05 2017.5c-7.46 0-14.57 1.5-19.89 4.58l-96.07 55.45c-11.73 6.78-10.26 18.62 3.29 26.44 7.41 4.28 16.9 6.47 25.9 6.47 7.45 0 14.57-1.5 19.89-4.57l96.06-55.46c11.74-6.78 10.27-18.62-3.28-26.44-7.41-4.28-16.9-6.47-25.9-6.47"/></g><g clip-path="url(#C)" transform="matrix(.15675 0 0 -.15675 -385.4829634 440.1738281)"><path fill="url(#D)" d="M4442.04 2350.16c-7.46 0-14.57 1.51-19.88 4.57l-96.07 55.47c-11.73 6.78-10.26 18.61 3.29 26.44 7.41 4.27 16.9 6.47 25.9 6.47 7.45 0 14.57-1.51 19.88-4.58l96.07-55.46c11.74-6.78 10.27-18.61-3.29-26.43-7.41-4.28-16.9-6.48-25.9-6.48"/></g><path fill="#76d1cb" d="M415.60961657 126.06591862c-2.12402662 1.2258133-5.5694932 1.2258133-7.69350648 0-2.12402661-1.22738664-2.12402661-3.21503992 0-4.44085323 2.12401328-1.22895997 5.56791986-1.22895997 7.69350648 0 2.12402661 1.2258133 2.12402661 3.21346659 0 4.44085323M386.24635063 104.67049248l15.05785296 8.69517312c1.84029329 1.06279997 1.60986663 2.9156266-.51415999 4.14458656-2.1240266 1.22582664-5.33906653 1.35906663-7.17778648.29626666l-15.05941296-8.69517311c-1.83873329-1.06122664-1.60830663-2.91563993.51571999-4.14145323 2.12402661-1.22895997 5.3374932-1.36062664 7.17778648-.2994M300.34328612 52.52452045l15.05941295 8.69517312c1.84030662 1.06122664 1.60986663 2.91719993-.51571998 4.14302656-2.12402662 1.2258133-5.3374932 1.3590533-7.1762265.29782666l-15.05939962-8.69359978c-1.83873328-1.06279997-1.60830662-2.91877326.51572-4.1445999 2.1240266-1.2258133 5.3374932-1.3590533 7.17621315-.29782666"/><path fill="#b1e5e2" d="M302.95795272 143.53465151c0-17.4781329-12.27074636-38.7356257-27.41009265-47.47469214-7.58222648-4.37814656-14.4465063-4.78571989-19.40934618-1.90299996v-.00133333l-5.18230654 3.03319992 1.5064133.14108c-2.73379994 3.34357325-4.32486656 8.27349313-4.32486656 14.55465297 0 17.47970623 12.2723197 38.73561236 27.41010598 47.47625215 5.20267987 3.00185325 10.06521308 4.1383199 14.20979964 3.6225999l-.116 1.3904133 5.26067988-3.07866659.06426666-.0376.21318666-.12386666-.01066666-.00266666c4.81706654-2.9234666 7.78913313-8.99770645 7.78913313-17.5956929"/><path fill="#76d1cb" d="M297.71921951 146.6007581c0 17.47970623-12.27387969 24.56501272-27.41166598 15.82437294-15.13778628-8.73906645-27.41010598-29.99654592-27.41010598-47.47467881 0-17.47970623 12.2723197-24.56499939 27.41010598-15.82594627 15.1377863 8.74063978 27.41166598 29.99655925 27.41166598 47.47625214"/><path fill="#b1e5e2" d="M238.92059432 67.98992007c10.14827974-14.23174631 12.49646635-38.6635057 5.24343987-54.56939864-3.63201325-7.96626647-8.98517311-12.28170636-14.69887964-12.81781301h.00133334l-5.98018652-.53923999 1.1427333.98911998c-4.16653322 1.13647997-8.32366645 4.22610656-11.96977303 9.3410131-10.14829308 14.2317463-12.49490635 38.6635057-5.24343987 54.5678253 2.49239994 5.46602653 5.79363986 9.21246644 9.46483977 11.20010639l-.90134665 1.0643733 6.07110652.54706666.0752.008.24610666.022-.00933334-.00933334c5.6196532.41697332 11.56691971-2.80275993 16.55798625-9.80342642"/><path fill="#76d1cb" d="M232.8745678 67.44441341c-10.14829308 14.23174631-24.25306606 12.87582635-31.50453254-3.02849325-7.25303982-15.9058796-4.90485321-40.336079 5.24186653-54.56939864 10.14829308-14.23174631 24.2546394-12.87581301 31.50610588 3.0285066 7.25302649 15.90430626 4.90485321 40.33607898-5.24343987 54.5693853"/><g clip-path="url(#E)" transform="matrix(.15675 0 0 -.15675 -385.4829634 440.1738281)"><path fill="url(#F)" d="M3957.16 1507.3s.01 0 .01.01l-.01-.01m1.43.84c30.98 18.54 50.1 57.45 50.1 112.54 0 111.51-78.29 247.11-174.86 302.87-28.07 16.2-54.59 23.88-78.1 23.88-16.7 0-31.89-3.88-45.01-11.33l32.71 19.15v-.01c13.3 7.72 28.73 11.74 45.74 11.74 23.5 0 50.02-7.68 78.09-23.88 96.57-55.75 174.86-191.35 174.86-302.86 0-54.84-18.96-93.6-49.7-112.25l.07-.01-1.35-.8-.41-.24-32.14-18.8"/></g><g clip-path="url(#G)" transform="matrix(.15675 0 0 -.15675 -385.4829634 440.1738281)"><path fill="url(#H)" d="M3911.93 1495.85c-23.51 0-50.03 7.67-78.1 23.88-96.58 55.76-174.86 191.36-174.86 302.86 0 56.07 19.79 95.37 51.75 113.51 13.12 7.45 28.31 11.33 45.01 11.33 23.51 0 50.03-7.68 78.1-23.88 96.57-55.76 174.86-191.36 174.86-302.87 0-55.09-19.12-94-50.1-112.54-.47-.29-.94-.56-1.42-.83 0-.01-.01-.01-.01-.01-13.18-7.53-28.43-11.45-45.23-11.45"/></g><g clip-path="url(#I)" transform="matrix(.15675 0 0 -.15675 -385.4829634 440.1738281)"><path fill="url(#J)" d="M3845.13 1458.27c-120.63 0-241.26 26.51-333.09 79.53-89.31 51.56-138.49 120.22-138.49 193.33 0 73.09 49.18 141.75 138.48 193.3 91.82 53.02 212.46 79.54 333.08 79.54 60.8 0 121.58-6.73 178.7-20.2.4-1.28.81-2.55 1.23-3.83-57.43 13.73-118.68 20.6-179.92 20.6-120 0-240-26.36-331.36-79.12-88.18-50.91-136.75-118.49-136.75-190.29 0-71.82 48.57-139.42 136.76-190.32 91.36-52.76 211.36-79.14 331.37-79.14 120 0 240 26.38 331.36 79.14 88.18 50.9 136.74 118.48 136.74 190.3 0 10.21-.98 20.33-2.92 30.34l3.17 1.85c2.13-10.61 3.21-21.35 3.21-32.19 0-73.11-49.17-141.76-138.47-193.31l-.87 1.5.87-1.5c-91.84-53.02-212.47-79.53-333.1-79.53"/></g><path fill="#96dcd7" d="M290.17932637 164.05851767c0-.00133334-.00133333-.00666667-.00133333-.00933334.16458666-.10506666.32761332-.21476.48906665-.32762666.00266667.01573334.00666667.03133334.00933333.04706667l-.49690665.29"/><path fill="#76d1cb" d="M290.17776637 164.04911767c-1.83559995-9.45699977-9.12311977-18.22271955-20.97690614-25.06662604-7.01319983-4.04897324-15.10173296-7.10725316-23.74046608-9.17327978-.06586666-.20063999-.13013333-.39971999-.19281332-.60035998 8.8111731 2.07855995 17.0627329 5.17915987 24.20446606 9.3018131 11.90237303 6.87211983 19.25886618 15.68329294 21.19478613 25.21082604-.16145332.11293333-.32447999.2226-.48906665.32762666"/><g clip-path="url(#K)" transform="matrix(.15675 0 0 -.15675 -385.4829634 440.1738281)"><path fill="url(#L)" d="M3845.14 1385.14c-153.1 0-306.16 33.63-422.71 100.93-113.23 65.38-175.6 152.4-175.6 245.05 0 92.64 62.36 179.68 175.6 245.05 116.52 67.27 269.61 100.92 422.67 100.92 55.19 0 110.36-4.37 163.83-13.11.05-1.17.11-2.33.18-3.51-53.52 8.8-108.76 13.2-164 13.2-152.46 0-304.89-33.5-420.96-100.51-112.11-64.73-173.85-150.68-173.85-242.04 0-91.36 61.74-177.32 173.86-242.04 116.07-67.02 268.54-100.53 420.99-100.53 58.9 0 117.81 5 174.61 15-.48-1.22-.96-2.46-1.42-3.71-56.38-9.8-114.79-14.7-173.2-14.7m371.6 74.6c-1.25.71-2.49 1.41-3.73 2.1 18.4 8.36 36.13 17.43 53.09 27.23 112.11 64.72 173.85 150.68 173.85 242.04 0 47.97-17.02 94.45-49.42 137.15.19 1.66.35 3.34.5 5.03 34.33-44.1 52.39-92.32 52.39-142.18 0-92.65-62.36-179.68-175.59-245.05-16.34-9.44-33.41-18.21-51.09-26.32"/></g><g clip-path="url(#M)" transform="matrix(.15675 0 0 -.15675 -385.4829634 440.1738281)"><path fill="url(#N)" d="M4177.73 1443.28c-1.35.74-2.71 1.45-4.06 2.14 13.41 5.13 26.54 10.6 39.34 16.42 1.24-.69 2.48-1.39 3.73-2.1-12.7-5.83-25.71-11.31-39.01-16.46"/></g><g clip-path="url(#O)" transform="matrix(.15675 0 0 -.15675 -385.4829634 440.1738281)"><path fill="url(#P)" d="M4018.34 1399.84c.46 1.25.94 2.49 1.42 3.71 53.79 9.48 105.67 23.43 153.91 41.87 1.35-.69 2.71-1.4 4.06-2.14-49.83-19.27-103.62-33.75-159.39-43.44"/></g><path fill="#a4e0dd" d="M302.75260606 147.31557142c-1.56910663-2.06759995-3.36707992-4.0787599-5.3892132-6.02251985-.036-.28685333-.0768-.57371999-.11906667-.86371998 2.09110662 1.96570662 3.9564799 4.00194657 5.5867332 6.09775985-.02346667.26491999-.04866667.52826665-.0784.78847998"/><path fill="#76d1cb" d="M297.36339286 141.29305157c-3.8969199-3.7479999-8.61993312-7.24675982-14.11731965-10.4194664-11.60139971-6.69813317-25.5227727-11.26125306-40.28278566-13.687813-.01066667-.18497333-.0204-.36679999-.02826667-.55021332 14.8728663 2.4312666 28.89770595 7.01947983 40.58218566 13.76618632 5.30299986 3.0629866 9.89434642 6.4269465 13.72699965 10.02758642.04226667.29.08306667.57686665.11906667.86371998M217.25711486 135.61070504c-14.8039063 0-29.60779926 3.25265326-40.87845231 9.7595331-10.8662264 6.27331984-16.85111958 14.60011963-16.85111958 23.44265274 0 8.84407978 5.98645318 17.16931957 16.85267958 23.44419941 22.5413061 13.01690634 59.21717185 13.01377301 81.75690462 0 10.8662264-6.2733065 16.85111958-14.5985463 16.85111958-23.44263941 0-8.84251978-5.98489318-17.16931957-16.85267958-23.44421275-11.27065305-6.50687983-26.07455935-9.75953309-40.87845231-9.75953309zm.00133333 66.94359833c-14.90107962 0-29.80374592-3.27459992-41.14806564-9.82537309-11.04335972-6.37521317-17.12543957-14.86817296-17.12543957-23.9160394 0-9.04474644 6.08050652-17.53770623 17.12386624-23.9144794 22.6902261-13.09683967 59.60905184-13.09683967 82.29770461 0 11.04335972 6.37677317 17.12543957 14.86973296 17.12543957 23.9160394 0 9.04630644-6.08207985 17.53926623-17.12543957 23.9144794l-.1348-.23513333.1348.23513333c-11.34274638 6.55077317-26.24541268 9.82537309-41.14806564 9.82537309"/><g clip-path="url(#Q)" transform="matrix(.15675 0 0 -.15675 -385.4829634 440.1738281)"><path fill="#b1e5e2" d="M4042.12 1640.24c0 111.51-78.29 247.11-174.86 302.86-48.38 27.93-92.16 30.53-123.82 12.14v.01l-33.06-19.35 9.6-.9c-17.43-21.33-27.58-52.78-27.58-92.85 0-111.51 78.29-247.11 174.86-302.87 33.18-19.15 64.21-26.38 90.64-23.11l-.74-8.87 33.57 19.64.41.24 1.35.8-.07.01c30.74 18.65 49.7 57.41 49.7 112.25"/><path fill="#76d1cb" d="M4008.69 1620.68c0-111.51-78.29-156.71-174.86-100.95-96.58 55.76-174.86 191.36-174.86 302.86 0 111.52 78.28 156.71 174.86 100.96 96.57-55.76 174.86-191.36 174.86-302.87"/></g><g clip-path="url(#R)" transform="matrix(.15675 0 0 -.15675 -385.4829634 440.1738281)"><path fill="url(#S)" d="M3420.78 1145.69c-15.63 0-31.27 4.05-45.28 12.14l-549.19 317.07c-16.2 9.35-16.2 32.73 0 42.09l83.84 48.82c14.01 8.09 29.65 12.13 45.29 12.13s31.28-4.04 45.29-12.13l549.19-317.07c16.19-9.35 16.19-32.74 0-42.08l-83.85-48.83c-14.01-8.09-29.65-12.14-45.29-12.14"/></g><path fill="#76d1cb" d="m100.54550444 207.87611657-13.77871965-7.9537198 2.73849326-1.58322663 13.780293 7.95529314-2.7400666 1.58165329M139.3877168 230.861036l-4.23237322-2.44222661 2.7400666-1.58322663 4.23237322 2.44379994-2.7400666 1.5816533M108.52587758 212.60696978l-4.2307999-2.44537327 2.7400666-1.5816533 4.2307999 2.44381328-2.7400666 1.5832133"/><path fill="#76d1cb" d="M77.79571835 181.0319039c-2.40147994 0-4.80295988.61917333-6.9442265 1.8559733l-13.14230633 7.6543198c-1.09414664.63171999-1.7493733 1.7634933-1.7493733 3.0285066 0 1.26499996.65522666 2.39677327 1.7493733 3.03006659l86.08803784 49.70215875c4.28253323 2.4735866 9.60434643 2.4735866 13.88687966 0l13.14230633-7.6543198c1.09571998-.63171999 1.74938663-1.7634933 1.74938663-3.0285066 0-1.26499997-.65366665-2.39677327-1.74938663-3.02849325l-86.08646451-49.7037321c-2.14126661-1.23679996-4.54274655-1.85597328-6.9442265-1.85597328zm72.94415817 67.74774498c-2.5080666 0-5.01614654-.64582665-7.25302648-1.93747995l-86.08803785-49.7037321c-1.2900933-.74458664-2.05974662-2.07857327-2.05974662-3.56773324 0-1.4891733.76965332-2.82315993 2.05974662-3.56773324l13.140733-7.65433314c4.4769199-2.5833066 10.03699975-2.5833066 14.51077297 0l86.08803785 49.70373209c1.28851997.74458665 2.05974662 2.07699995 2.05974662 3.56773324 0 1.49074663-.77122665 2.82315993-2.05974662 3.56773325l-13.14230634 7.65433314c-2.23689327 1.2916533-4.74653321 1.93747995-7.25617315 1.93747995"/><path fill="#344891" d="m270.5222602 111.95930563-.1292 1.98539995-.1292 1.98535996-1.3845733-.65733332-1.38459996-.65735999-.0152-2.04575994-.0152-2.04577329-2.24749328-1.0670133-2.24701328-1.06675998-.1284 1.95717329-.12826666 1.95723995-3.7202799-1.81202662-3.72029324-1.81206662.00666666 2.36867994.00533334 2.36865327 2.57873326 1.28390664 2.5787066 1.2834933-.25827999 9.16727977-.25827999 9.16690644-2.58203994-1.1657333-2.5819866-1.16573331-.06386666 2.2695466-.064 2.26958662 3.64929324 1.76774662 3.6492799 1.76802662.0164 2.01079995.0164 2.01126662 2.25634662 1.07123997 2.2563066 1.0712133.0548-1.94110661.0548-1.94107995 1.40819997.59713332c.77446665.32830665 1.45398663.65795998 1.5100133.73246664.05613333.0748.07733333 1.00197331.0476 2.06110662l-.0544 1.92582662 2.26569327 1.07570664 2.26567995 1.07558664.05733333-2.03462662c.0572-2.03305328.058-2.03443995.65549332-1.65547996 1.1691733.74151999 4.25605322 1.65438663 5.78785318 1.71183996 4.15914657.15582666 6.34293318-2.9867066 4.99222655-7.18407982-.62250665-1.93442662-1.59322663-3.64370658-3.0087466-5.29770653l-1.06991997-1.24994664.81306665-.91585331c.74554665-.83974665.81791998-1.0880133.87138664-2.98677326.05106667-1.81498662-.0208-2.2563466-.58297332-3.57109324-1.19470663-2.79399993-4.14465323-6.23282651-6.76635983-7.88781314l-.84107998-.53118665-.01506666-2.02371995-.01506667-2.02367995-2.19171994-1.10106664zm-4.54289323 6.64105317 4.4182799 2.09763995c4.9269732 2.3392266 5.38719986 2.65347993 6.51287983 4.45191989.76902665 1.22866663.99021331 2.70483993.53338665 3.56225324-.39359999.73890665-1.76155995 1.0918933-3.02702659.78111998-1.04291997-.25633332-8.19701312-3.58326657-8.46318645-3.93590657-.09013333-.1196-.1212-1.73373329-.06933333-3.58730657zm-.32497332 11.53359971 6.10301318 2.95999993c5.98149318 2.90123993 6.11978651 2.9781466 6.9367065 3.85806657.93327997 1.00519997 1.73217328 2.71619993 1.70578662 3.65330657-.02653333.93703998-.89935998 1.8539733-1.86386662 1.95814662-.83735998.0904-1.02947998.0164-6.86505316-2.65245326-3.30182659-1.5090133-6.04921319-2.80679993-6.10519985-2.8814266-.056-.0748-.05893333-1.6563733-.00666667-3.51550658zM223.32008804 18.99350796l-.52627999 2.24233328-.52627998 2.24227994-1.25310664-.58223999-1.25311997-.58225331.39394666-2.29385328.39396-2.29386661-2.0340933-.94511998-2.0336666-.94487997-.51982666 2.21055994-.51971999 2.21062661-3.35787991-1.61583996-3.35787992-1.61585329-.46706666 2.65715993-.46839998 2.65727994 2.32195994 1.15130664 2.32199994 1.15086663-2.09173328 10.31563975-2.09165328 10.31521307-2.34889328-1.01834664-2.34883994-1.01834664-.51778665 2.55383994-.51790666 2.55389326 3.29573326 1.57411997 3.29567991 1.57442662-.38575999 2.25449328-.38585332 2.25501328 2.04209328.9488533 2.04206662.94882665.44302665-2.18426661.44301333-2.18425328 1.2887733.51203999c.70879998.28147999 1.32239996.57514665 1.36351996.65245331.0412.0776-.12306666 1.11563997-.36462666 2.30743994l-.43955998 2.16707995 2.05054661.95283998 2.05057328.95267997.46425332-2.2895066c.46381333-2.28770662.46489333-2.28935995.98658665-1.9311733 1.02086664.70086666 3.92517323 1.37883997 5.4454932 1.27141331 4.12797322-.29185333 6.94026649-4.06314656 6.42903983-8.62147978-.23562666-2.10078662-.8644933-3.9098399-1.94921328-5.6069732l-.81991998-1.28251997.99622664-1.11891997c.91350664-1.0259333 1.0355333-1.31263996 1.46874663-3.44925324.41406666-2.04233329.43046666-2.52951994.1312-3.94173324-.63590665-3.00109326-2.89807993-6.52881317-5.18878654-8.09169313l-.73485331-.50167999.38967999-2.26913327.38966665-2.26909328-1.97150661-.98957331zm-5.87110652 7.9617198 3.99874657 1.85799995c4.45913322 2.07199995 4.85650654 2.37298661 5.6224932 4.2647199.52329331 1.29238663.44925331 2.92399992-.17905334 3.9373599-.54138665.8732933-1.97994662 1.4228933-3.18325325 1.2161733-.99165331-.17061333-7.48035981-3.10101325-7.67599981-3.46685325-.06626666-.124.22553333-1.93182661.64811998-4.01754656zm-2.63169327 12.97839968 5.5110132 2.63659993c5.40123986 2.58431993 5.52415986 2.65509327 6.16509318 3.55078658.73223998 1.0232133 1.1889333 2.8535066.97511997 3.90798657-.21393332 1.05443997-1.27014663 2.18127994-2.25549327 2.4063866-.85543998.19541333-1.03275998.13390667-6.33455984-2.20599994-3.0000266-1.32275997-5.4878532-2.47073327-5.52891987-2.5481866-.04106666-.0776.27234666-1.8520133.69643999-3.94402657z"/></svg>