<svg width="408" height="102" viewBox="0 0 408 102" fill="none" xmlns="http://www.w3.org/2000/svg">
<path d="M0 96.7856V4.59022C0 3.30992 0.554022 2.3493 1.66214 1.70892C2.86202 0.977497 4.24962 0.611359 5.81591 0.611359C7.38657 0.611359 8.72574 0.97864 9.83398 1.70892C11.0339 2.34944 11.6357 3.30952 11.6357 4.59022V90.4745H28.9934C30.1933 90.4745 31.1181 91.0231 31.7639 92.1209C32.4083 93.1268 32.7334 94.316 32.7334 95.688C32.7334 97.0599 32.4263 98.2945 31.7639 99.3925C31.1195 100.398 30.1926 100.901 28.9934 100.901H5.2637C3.8763 100.901 2.63312 100.534 1.52487 99.8037C0.508004 99.0722 0.00196656 98.0658 0.00196656 96.7855L0 96.7856Z" fill="#1B1B1B"/>
<path d="M39.4163 75.6576V39.9868C39.4163 38.8893 39.9706 37.9287 41.0788 37.1055C42.2787 36.2824 43.6659 35.8706 45.2322 35.8706C46.7114 35.8706 48.0025 36.3276 49.1107 37.2425C50.3105 38.0658 50.9124 38.9805 50.9124 39.9864V75.6572C50.9124 79.7731 52.4841 83.4774 55.6227 86.7701C58.7639 90.0628 62.5024 91.7091 66.8428 91.7091C71.0922 91.7091 74.7847 90.1085 77.9247 86.9073C81.0661 83.6146 82.6346 79.8646 82.6346 75.6572V39.8493C82.6346 38.8434 83.1887 37.9286 84.2968 37.1054C85.4967 36.2823 86.8841 35.8704 88.4505 35.8704C90.1127 35.8704 91.4521 36.2812 92.4686 37.1054C93.5757 37.8369 94.1311 38.7517 94.1311 39.8493V75.6577C94.1311 82.7004 91.4087 88.8742 85.9585 94.1791C80.602 99.3925 74.2298 101.999 66.842 101.999C59.3616 101.999 52.8971 99.3928 47.4485 94.1791C42.0921 88.8742 39.4143 82.7004 39.4143 75.6577L39.4163 75.6576Z" fill="#1B1B1B"/>
<path d="M132.623 0.602951V0.694957C123.95 0.736275 116.638 3.12625 111.144 7.93162C105.696 12.7788 102.973 20.3294 102.973 30.5733V71.7626C102.973 82.0065 105.696 89.5571 111.144 94.4042C116.638 99.2096 123.95 101.6 132.623 101.641V101.733H157.505C158.62 101.733 159.341 100.843 160.176 99.7512C161.011 98.5692 161.175 98.1843 161.175 96.6413C161.175 95.1842 161.08 94.0982 160.15 93.0066C159.413 91.9644 158.599 91.4052 157.719 91.2811H132.623V91.3147C132.562 91.3126 132.511 91.2979 132.45 91.2945V91.3338C122.893 91.1685 117.243 86.8781 115.366 78.5925C115.288 78.2677 115.22 77.9327 115.155 77.5953C114.834 75.8356 114.609 73.9672 114.609 71.8676V71.7629V30.5736V30.4688C114.609 28.3782 114.831 26.5209 115.148 24.7673C115.217 24.4166 115.285 24.0681 115.367 23.7307C117.248 15.4552 122.899 11.1678 132.45 11.0026V11.0419C132.511 11.0395 132.562 11.0251 132.624 11.0218V11.0553H144.079C144.96 10.931 145.774 10.372 146.51 9.32981C147.439 8.23821 147.536 7.15222 147.536 5.69508C147.536 4.15214 147.372 3.76721 146.537 2.58521C145.701 1.49348 144.98 0.603822 143.866 0.603822L132.623 0.602951Z" fill="#180BB3"/>
<path d="M164.097 83.752C164.097 76.6178 166.867 71.6788 172.408 68.9349C177.949 66.0994 185.983 64.682 196.511 64.682H203.16V61.8008C203.16 57.2276 201.869 53.2489 199.282 49.8648C196.79 46.4805 193.002 44.7885 187.923 44.7885C184.044 44.7885 180.627 45.4742 177.672 46.8466C174.718 48.127 173.1 48.7674 172.823 48.7674C171.532 48.7674 170.467 48.1729 169.638 46.9841C168.901 45.7038 168.531 44.3776 168.531 43.0052C168.531 40.9017 170.608 39.0721 174.764 37.5174C179.014 35.871 183.492 35.0479 188.202 35.0479C197.252 35.0479 203.901 37.609 208.149 42.7308C212.49 47.7613 214.66 54.0723 214.66 61.6638V96.7858C214.66 97.9749 214.104 98.9809 212.998 99.8041C211.981 100.536 210.641 100.902 208.979 100.902C207.5 100.902 206.257 100.534 205.24 99.8041C204.223 98.9809 203.716 97.9749 203.716 96.7858V91.298C197.436 98.4321 190.464 101.999 182.799 101.999C177.258 101.999 172.733 100.444 169.223 97.3346C165.807 94.2246 164.099 89.6974 164.099 83.7522L164.097 83.752ZM175.732 82.517C175.732 85.9014 176.702 88.4622 178.642 90.2C180.58 91.9379 183.168 92.8065 186.4 92.8065C190.279 92.8065 194.019 91.2975 197.621 88.279C201.316 85.1691 203.162 82.0138 203.162 78.8125V71.6784H198.313C195.634 71.6784 193.326 71.7685 191.387 71.955C189.445 72.0452 187.416 72.3223 185.291 72.7782C183.258 73.1455 181.553 73.7385 180.167 74.5616C178.875 75.2931 177.81 76.3449 176.982 77.7173C176.153 78.9978 175.735 80.5986 175.735 82.5191L175.732 82.517Z" fill="#180BB3"/>
<path d="M230.483 96.7855V39.8495C230.483 38.6604 230.988 37.7001 232.005 36.9681C233.113 36.2366 234.501 35.8706 236.158 35.8706C237.543 35.8706 238.746 36.2812 239.758 37.1055C240.866 37.8369 241.42 38.7519 241.42 39.8494V45.4744C242.9 42.5477 245.256 40.0781 248.486 38.0659C251.81 36.0535 255.642 35.0476 259.982 35.0476C266.54 35.0476 272.219 37.654 277.021 42.8677C281.915 47.9896 284.363 54.1634 284.363 61.3891V96.7855C284.363 98.0658 283.761 99.0722 282.561 99.8038C281.453 100.535 280.113 100.901 278.542 100.901C277.063 100.901 275.728 100.534 274.524 99.8038C273.416 99.0722 272.862 98.0658 272.862 96.7855V61.389C272.862 57.2732 271.291 53.5689 268.152 50.2762C265.011 46.9835 261.318 45.3372 257.07 45.3372C253.1 45.3372 249.59 46.8465 246.543 49.8646C243.493 52.7913 241.971 56.6329 241.971 61.389V96.7855C241.971 97.7913 241.369 98.752 240.169 99.6668C238.969 100.49 237.63 100.902 236.151 100.902C234.58 100.902 233.241 100.491 232.132 99.6668C231.025 98.8438 230.47 97.883 230.47 96.7855L230.483 96.7855Z" fill="#180BB3"/>
<path d="M297.658 75.383V61.3891C297.658 54.3464 300.337 48.2183 305.693 43.0049C311.141 37.7 317.559 35.0476 324.948 35.0476C332.335 35.0476 338.752 37.654 344.201 42.8677C349.65 48.0811 352.374 54.2549 352.374 61.3891V75.383C352.374 82.3343 349.604 88.508 344.064 93.9044C338.615 99.3007 332.243 101.999 324.948 101.999C317.652 101.999 311.28 99.3466 305.831 94.0416C300.382 88.6453 297.658 82.4257 297.658 75.383ZM309.156 75.383C309.156 79.6816 310.727 83.4775 313.866 86.7703C317.007 90.0629 320.699 91.7093 324.948 91.7093C329.289 91.7093 333.027 90.0629 336.167 86.7703C339.308 83.386 340.878 79.5903 340.878 75.383V61.3891C340.878 57.2732 339.306 53.5689 336.167 50.2763C333.026 46.9836 329.288 45.3372 324.948 45.3372C320.606 45.3372 316.867 46.9836 313.727 50.2763C310.677 53.5689 309.156 57.2732 309.156 61.3891V75.383Z" fill="#180BB3"/>
<path d="M362.149 91.5721C362.149 90.383 362.499 89.24 363.258 88.1424C364.086 86.9533 365.06 86.3591 366.168 86.3591C366.904 86.3591 367.97 86.9077 369.353 88.0054C370.737 89.103 372.725 90.2005 375.309 91.2981C377.896 92.304 380.943 92.8071 384.452 92.8071C389.069 92.8071 392.394 91.9842 394.425 90.3377C396.55 88.6913 397.61 86.6331 397.61 84.1639C397.61 81.1455 396.454 78.7675 394.146 77.0297C391.838 75.2005 389.021 73.8286 385.697 72.9138C382.372 71.9991 379.047 70.9931 375.723 69.8955C372.398 68.7979 369.581 66.9688 367.273 64.4077C364.964 61.8466 363.808 58.4626 363.808 54.2553C363.808 49.0418 365.654 44.5601 369.349 40.8101C373.136 36.9686 378.861 35.0479 386.526 35.0479C391.421 35.0479 395.9 35.8251 399.963 37.3804C404.025 38.8439 406.058 40.5357 406.058 42.4566C406.058 43.5542 405.595 44.7892 404.671 46.1611C403.842 47.5331 402.777 48.2193 401.485 48.2193C401.136 48.2193 399.317 47.5788 396.083 46.2986C392.942 44.9266 389.804 44.2404 386.664 44.2404C382.414 44.2404 379.229 45.2463 377.105 47.2587C375.072 49.1794 374.06 51.3746 374.06 53.8441C374.06 56.4052 375.217 58.4173 377.524 59.8807C379.832 61.3443 382.649 62.4876 385.974 63.3108C389.39 64.1339 392.762 65.1399 396.086 66.3291C399.411 67.5182 402.228 69.576 404.536 72.5029C406.844 75.3384 408 79.0425 408 83.6157C408 89.2864 405.967 93.7682 401.905 97.0609C397.843 100.354 392.163 102 384.867 102C378.587 102 373.231 100.902 368.798 98.7072C364.365 96.4205 362.149 94.0426 362.149 91.5731L362.149 91.5721Z" fill="#180BB3"/>
<path d="M267.039 0C265.982 0.0533236 265.283 0.923792 264.474 1.98144C263.692 3.08956 263.496 3.4978 263.475 4.81577C263.474 4.90337 263.475 4.99476 263.475 5.09125C263.475 6.54839 263.566 7.63436 264.502 8.72596C265.337 9.90796 266.265 10.504 267.285 10.504H314.485C315.506 10.504 316.434 9.90801 317.269 8.72596C318.198 7.63434 318.295 6.54839 318.295 5.09125C318.295 4.99476 318.297 4.9035 318.295 4.81577C318.257 3.4978 318.08 3.08957 317.296 1.98144C316.487 0.923856 315.788 0.0532474 314.732 0H314.629H267.039Z" fill="#180BB3"/>
<path d="M390.32 0C389.263 0.0533236 388.565 0.923792 387.756 1.98144C386.974 3.08956 386.778 3.4978 386.757 4.81577C386.756 4.90337 386.757 4.99476 386.757 5.09125C386.757 6.54839 386.847 7.63436 387.783 8.72596C388.618 9.90796 389.546 10.504 390.567 10.504H403.667C404.688 10.504 405.616 9.90801 406.451 8.72596C407.38 7.63434 407.477 6.54839 407.477 5.09125C407.477 4.99476 407.478 4.9035 407.477 4.81577C407.438 3.4978 407.262 3.08957 406.478 1.98144C405.669 0.923856 404.97 0.0532474 403.914 0H403.811H390.32Z" fill="#180BB3"/>
<path d="M335.499 0C334.442 0.0533236 333.744 0.923792 332.935 1.98144C332.153 3.08956 331.957 3.4978 331.936 4.81577C331.935 4.90337 331.936 4.99476 331.936 5.09125C331.936 6.54839 332.026 7.63436 332.962 8.72596C333.797 9.90796 334.726 10.504 335.746 10.504H369.306C370.327 10.504 371.256 9.90801 372.09 8.72596C373.02 7.63434 373.116 6.54839 373.116 5.09125C373.116 4.99476 373.117 4.9035 373.116 4.81577C373.077 3.4978 372.901 3.08957 372.117 1.98144C371.308 0.923856 370.609 0.0532474 369.553 0H369.45H335.499Z" fill="#1B1B1B"/>
<path d="M157.658 0C156.602 0.0533236 155.903 0.923792 155.094 1.98144C154.312 3.08956 154.116 3.4978 154.095 4.81577C154.094 4.90337 154.095 4.99476 154.095 5.09125C154.095 6.54839 154.186 7.63436 155.121 8.72596C155.956 9.90796 156.884 10.504 157.905 10.504H246.025C247.045 10.504 247.974 9.90801 248.809 8.72596C249.738 7.63434 249.834 6.54839 249.834 5.09125C249.834 4.99476 249.836 4.9035 249.834 4.81577C249.796 3.4978 249.619 3.08957 248.836 1.98144C248.026 0.923856 247.328 0.0532474 246.271 0H246.168H157.658Z" fill="#1B1B1B"/>
</svg>
