<svg width="408" height="408" viewBox="0 0 408 408" fill="none" xmlns="http://www.w3.org/2000/svg">
  <clipPath id="trazado">
    <path d="M192.249 0.0356084C115.172 -1.58998 40.941 52.6096 9.29383 128.41C0.530192 150.354 0.915565 183.131 23.8292 194.502C45.1172 205.366 68.5453 217.095 78.464 242.109C92.4699 272.691 81.8136 307.64 88.6527 339.597C96.3511 371.256 124.657 390.647 153.042 395.33C189.285 402.866 227.615 401.491 263.026 389.675C275.528 387.37 304.972 371.017 318.827 357.325C346.921 329.562 361.78 324.8 378.014 292.963C406.249 248.061 413.953 186.197 388.699 137.703C359.155 83.4063 314.234 37.2997 259.793 14.1394C238.3 5.08607 215.329 -0.0383391 192.249 0.0356084ZM216.437 399.289C218.114 400.213 213.828 399.424 216.437 399.289Z" fill="#180BB3"/>
  </clipPath>
</svg>
